<?xml version="1.0" standalone="no"?>
<!DOCTYPE svg PUBLIC "-//W3C//DTD SVG 20010904//EN"
 "http://www.w3.org/TR/2001/REC-SVG-20010904/DTD/svg10.dtd">
<svg version="1.0" xmlns="http://www.w3.org/2000/svg"
 width="615.000000pt" height="492.000000pt" viewBox="0 0 615.000000 492.000000"
 preserveAspectRatio="xMidYMid meet">

<g transform="translate(0.000000,492.000000) scale(0.100000,-0.100000)"
fill="#000000" stroke="none">
<path d="M2880 4324 c-170 -21 -347 -69 -512 -140 -90 -38 -268 -133 -268
-143 0 -4 60 -110 133 -236 515 -891 542 -935 557 -929 8 4 46 18 85 32 64 22
81 24 215 20 122 -4 157 -8 218 -30 l74 -25 13 21 c7 12 87 161 178 331 91
171 226 424 300 563 l135 253 -41 26 c-68 43 -275 139 -371 172 -163 57 -310
82 -506 86 -96 2 -191 1 -210 -1z"/>
<path d="M3012 2769 c-71 -9 -174 -53 -232 -99 -183 -145 -219 -444 -76 -638
89 -121 217 -184 375 -184 93 0 146 13 223 54 81 43 152 118 195 204 31 64 36
85 41 167 8 156 -31 266 -131 366 -59 59 -167 117 -237 126 -86 11 -95 12
-158 4z"/>
<path d="M1120 2143 c1 -493 164 -899 494 -1229 123 -122 229 -207 354 -284
29 -18 54 -31 56 -29 1 2 164 262 360 577 l358 574 -23 16 c-123 86 -219 250
-255 435 l-17 87 -664 0 -663 0 0 -147z"/>
<path d="M3707 2283 c-4 -3 -7 -25 -7 -47 0 -70 -28 -178 -65 -253 -27 -54
-54 -89 -116 -147 -44 -42 -85 -76 -90 -76 -5 0 -9 -4 -9 -9 0 -7 703 -1137
716 -1150 5 -5 158 96 239 158 92 70 231 207 300 296 198 255 320 556 354 877
12 106 15 317 5 342 -6 14 -73 16 -663 16 -362 0 -661 -3 -664 -7z"/>
</g>
</svg>
